<svg width="76" height="65" viewBox="0 0 76 65" fill="none" xmlns="http://www.w3.org/2000/svg">
<path d="M32.8546 1.80893C37.9538 -0.867566 44.4402 0.890972 47.2897 5.6742L74.5476 50.4501C75.1475 51.7866 75.41 52.8734 75.4849 54.0024C75.6349 56.6402 74.6601 59.2041 72.7479 61.1772C70.8357 63.1432 68.2487 64.3039 65.4366 64.4446H10.5459C9.38358 64.3777 8.22128 64.128 7.13396 63.7411C1.69738 61.6661 -0.927177 55.8277 1.28495 50.7666L28.7303 5.64254C29.6677 4.05634 31.0924 2.6882 32.8546 1.80893ZM37.9913 44.1158C36.1916 44.1158 34.6918 45.5227 34.6918 47.2144C34.6918 48.8991 36.1916 50.3094 37.9913 50.3094C39.791 50.3094 41.2532 48.8991 41.2532 47.1757C41.2532 45.491 39.791 44.1158 37.9913 44.1158ZM37.9913 22.1728C36.1916 22.1728 34.6918 23.5409 34.6918 25.2327V35.1825C34.6918 36.8707 36.1916 38.281 37.9913 38.281C39.791 38.281 41.2532 36.8707 41.2532 35.1825V25.2327C41.2532 23.5409 39.791 22.1728 37.9913 22.1728Z" fill="#FFE60C"/>
</svg>
