<svg width="35" height="36" viewBox="0 0 35 36" fill="none" xmlns="http://www.w3.org/2000/svg">
<path d="M18 3C12.8306 3 8.625 6.3645 8.625 10.5V15H6.75C5.75544 15 4.80161 15.3161 4.09835 15.8787C3.39509 16.4413 3 17.2044 3 18V30C3 30.7956 3.39509 31.5587 4.09835 32.1213C4.80161 32.6839 5.75544 33 6.75 33H29.25C30.2446 33 31.1984 32.6839 31.9016 32.1213C32.6049 31.5587 33 30.7956 33 30V18C33 17.2044 32.6049 16.4413 31.9016 15.8787C31.1984 15.3161 30.2446 15 29.25 15H27.375V10.5C27.375 6.3645 23.1694 3 18 3ZM12.375 10.5C12.375 8.019 14.8988 6 18 6C21.1012 6 23.625 8.019 23.625 10.5V15H12.375V10.5ZM19.875 26.5845V30H16.125V26.5845C15.4695 26.2842 14.9431 25.832 14.6153 25.2875C14.2875 24.7431 14.1737 24.1319 14.2888 23.5347C14.4039 22.9374 14.7426 22.3821 15.2602 21.9419C15.7778 21.5017 16.45 21.1974 17.1881 21.069C17.7364 20.972 18.3049 20.9747 18.8517 21.0769C19.3985 21.1791 19.9097 21.3782 20.3475 21.6595C20.7853 21.9408 21.1386 22.2971 21.3813 22.7022C21.6241 23.1073 21.7501 23.5508 21.75 24C21.7489 24.5246 21.575 25.0397 21.2459 25.4935C20.9167 25.9472 20.4439 26.3235 19.875 26.5845Z" fill="#A8A8A8"/>
</svg>
