<svg width="26" height="24" viewBox="0 0 26 24" fill="none" xmlns="http://www.w3.org/2000/svg">
<path fill-rule="evenodd" clip-rule="evenodd" d="M23.9552 1.12784C24.3336 1.5063 24.3336 2.11984 23.9552 2.4983L3.58041 22.8718C3.39182 23.0616 3.14382 23.1559 2.89582 23.1559C2.64782 23.1559 2.39982 23.0616 2.21124 22.8718C1.83278 22.4933 1.83278 21.881 2.21124 21.5026L4.75834 18.957C2.93216 17.2867 1.38305 15.0351 0.245453 12.3837C0.139536 12.1383 0.139536 11.8618 0.245453 11.6177C1.56424 8.56422 3.42166 6.03643 5.6175 4.30947C9.87073 0.943451 15.4623 0.764782 19.8881 3.82552L22.586 1.12784C22.9645 0.74938 23.5767 0.74938 23.9552 1.12784ZM23.477 7.35496C24.4121 8.59625 25.2337 10.0313 25.9195 11.6149C26.0267 11.8603 26.0267 12.1393 25.9195 12.3834C23.2122 18.657 18.4137 22.4016 13.0829 22.4016C11.8727 22.4016 10.6688 22.2053 9.50632 21.819C8.99869 21.6498 8.72357 21.1009 8.89277 20.5933C9.06198 20.0843 9.60836 19.8144 10.1186 19.9797C11.0834 20.3013 12.0806 20.4641 13.0829 20.4641C17.5108 20.4641 21.5576 17.3098 23.9717 11.9998C23.3827 10.7094 22.6968 9.54046 21.9296 8.52005C21.6079 8.0925 21.6932 7.48413 22.1207 7.1625C22.547 6.84088 23.1554 6.92871 23.477 7.35496ZM6.81745 5.83105C4.96262 7.29064 3.37 9.41672 2.19458 12.0026C3.21944 14.2662 4.56585 16.1752 6.12971 17.5849L8.89104 14.8238C8.32926 13.9973 8.02697 13.0227 8.02697 12.0021C8.02697 9.21212 10.2951 6.94266 13.0826 6.94266C14.0939 6.94266 15.0832 7.25061 15.9069 7.80718L18.4922 5.22203C14.8073 2.83991 10.3224 3.05722 6.81745 5.83105ZM17.2645 11.7735C17.7915 11.8678 18.1415 12.3715 18.0472 12.8985C17.6765 14.9562 16.0464 16.5888 13.9901 16.9634C13.932 16.9737 13.8725 16.9789 13.8157 16.9789C13.3572 16.9789 12.949 16.6508 12.8637 16.1832C12.7682 15.6575 13.1169 15.1525 13.6439 15.0569C14.9097 14.827 15.9121 13.8221 16.1394 12.555C16.235 12.0292 16.7387 11.6831 17.2645 11.7735ZM13.0826 8.88016C11.3633 8.88016 9.96447 10.2803 9.96447 12.0021C9.96447 12.4999 10.0817 12.9804 10.3026 13.4119L14.4949 9.21915C14.0632 8.9992 13.5778 8.88016 13.0826 8.88016Z" fill="#635C5C"/>
</svg>
