<svg width="40" height="40" viewBox="0 0 40 40" fill="none" xmlns="http://www.w3.org/2000/svg">
<path fill-rule="evenodd" clip-rule="evenodd" d="M26.6666 14.9999C26.6666 16.768 25.9642 18.4637 24.714 19.714C23.4637 20.9642 21.768 21.6666 19.9999 21.6666C18.2318 21.6666 16.5361 20.9642 15.2859 19.714C14.0356 18.4637 13.3333 16.768 13.3333 14.9999C13.3333 13.2318 14.0356 11.5361 15.2859 10.2859C16.5361 9.03563 18.2318 8.33325 19.9999 8.33325C21.768 8.33325 23.4637 9.03563 24.714 10.2859C25.9642 11.5361 26.6666 13.2318 26.6666 14.9999ZM23.3333 14.9999C23.3333 15.884 22.9821 16.7318 22.3569 17.3569C21.7318 17.9821 20.884 18.3333 19.9999 18.3333C19.1159 18.3333 18.268 17.9821 17.6429 17.3569C17.0178 16.7318 16.6666 15.884 16.6666 14.9999C16.6666 14.1159 17.0178 13.268 17.6429 12.6429C18.268 12.0178 19.1159 11.6666 19.9999 11.6666C20.884 11.6666 21.7318 12.0178 22.3569 12.6429C22.9821 13.268 23.3333 14.1159 23.3333 14.9999Z" fill="#A8A8A8"/>
<path fill-rule="evenodd" clip-rule="evenodd" d="M20 1.66663C9.87496 1.66663 1.66663 9.87496 1.66663 20C1.66663 30.125 9.87496 38.3333 20 38.3333C30.125 38.3333 38.3333 30.125 38.3333 20C38.3333 9.87496 30.125 1.66663 20 1.66663ZM4.99996 20C4.99996 23.4833 6.18829 26.69 8.17996 29.2366C9.57868 27.3998 11.3831 25.9112 13.4523 24.8871C15.5216 23.8631 17.7995 23.3313 20.1083 23.3333C22.3872 23.3311 24.6365 23.8492 26.6848 24.8479C28.7332 25.8467 30.5266 27.2998 31.9283 29.0966C33.3724 27.2026 34.3447 24.992 34.7648 22.6476C35.1849 20.3032 35.0407 17.8925 34.3441 15.6149C33.6476 13.3373 32.4187 11.2584 30.7591 9.55002C29.0995 7.84167 27.057 6.55306 24.8006 5.79081C22.5441 5.02856 20.1386 4.81458 17.7831 5.16658C15.4275 5.51858 13.1896 6.42644 11.2546 7.81505C9.31954 9.20365 7.74298 11.0331 6.65534 13.152C5.5677 15.2708 5.00026 17.6182 4.99996 20ZM20 35C16.5565 35.0051 13.2171 33.8205 10.5466 31.6466C11.6215 30.1078 13.0522 28.8515 14.7169 27.9844C16.3817 27.1174 18.2313 26.6653 20.1083 26.6666C21.9619 26.6651 23.7891 27.1059 25.4382 27.9523C27.0872 28.7987 28.5106 30.0264 29.59 31.5333C26.8988 33.7778 23.5043 35.0049 20 35Z" fill="#A8A8A8"/>
</svg>
