<svg width="109" height="137" viewBox="0 0 109 137" fill="none" xmlns="http://www.w3.org/2000/svg">
<path d="M22.0837 51.7415C21.4852 51.0901 21.5692 50.1258 22.2714 49.5876L29.6915 43.901C30.3936 43.3629 31.448 43.4548 32.0465 44.1062C32.645 44.7577 32.561 45.722 31.8588 46.2601L24.4387 51.9467C23.7366 52.4849 22.6822 52.393 22.0837 51.7415Z" fill="#8ED5AC"/>
<path d="M34.0651 38.3651C33.134 38.3651 32.3792 37.6103 32.3792 36.6792V28.1726C32.3792 27.2415 33.134 26.4867 34.0651 26.4867C34.9962 26.4867 35.751 27.2415 35.751 28.1726V36.6792C35.751 37.6103 34.9962 38.3651 34.0651 38.3651Z" fill="#8ED5AC"/>
<path d="M19.5767 36.1536C19.8952 35.3545 20.8151 34.9266 21.6314 35.198L30.8965 38.278C31.7128 38.5493 32.1164 39.4171 31.7979 40.2163C31.4795 41.0154 30.5596 41.4432 29.7433 41.1718L20.4782 38.0919C19.6618 37.8205 19.2583 36.9527 19.5767 36.1536Z" fill="#8ED5AC"/>
<path d="M34 94.9867V49.4467C34 42.8192 39.3726 37.4467 46 37.4467V82.9867C46 89.6141 40.6274 94.9867 34 94.9867Z" fill="#13723B"/>
<path d="M60.7 90.8L38.9 68.4L60.7 46H78.3L56.5 68.4L78.3 90.8H60.7Z" fill="#1CAB59"/>
<path d="M12.194 127L6.058 118.94V127H1.612V108.748H6.058V116.756L12.142 108.748H17.368L10.296 117.692L17.628 127H12.194ZM18.8569 119.72C18.8569 118.229 19.1342 116.921 19.6889 115.794C20.2609 114.667 21.0322 113.801 22.0029 113.194C22.9736 112.587 24.0569 112.284 25.2529 112.284C26.2756 112.284 27.1682 112.492 27.9309 112.908C28.7109 113.324 29.3089 113.87 29.7249 114.546V112.492H34.1709V127H29.7249V124.946C29.2916 125.622 28.6849 126.168 27.9049 126.584C27.1422 127 26.2496 127.208 25.2269 127.208C24.0482 127.208 22.9736 126.905 22.0029 126.298C21.0322 125.674 20.2609 124.799 19.6889 123.672C19.1342 122.528 18.8569 121.211 18.8569 119.72ZM29.7249 119.746C29.7249 118.637 29.4129 117.761 28.7889 117.12C28.1822 116.479 27.4369 116.158 26.5529 116.158C25.6689 116.158 24.9149 116.479 24.2909 117.12C23.6842 117.744 23.3809 118.611 23.3809 119.72C23.3809 120.829 23.6842 121.713 24.2909 122.372C24.9149 123.013 25.6689 123.334 26.5529 123.334C27.4369 123.334 28.1822 123.013 28.7889 122.372C29.4129 121.731 29.7249 120.855 29.7249 119.746ZM46.2274 112.336C47.9261 112.336 49.2781 112.891 50.2834 114C51.3061 115.092 51.8174 116.6 51.8174 118.524V127H47.3974V119.122C47.3974 118.151 47.1461 117.397 46.6434 116.86C46.1407 116.323 45.4647 116.054 44.6154 116.054C43.7661 116.054 43.0901 116.323 42.5874 116.86C42.0847 117.397 41.8334 118.151 41.8334 119.122V127H37.3874V112.492H41.8334V114.416C42.2841 113.775 42.8907 113.272 43.6534 112.908C44.4161 112.527 45.2741 112.336 46.2274 112.336ZM62.9929 123.23V127H60.7309C59.1189 127 57.8623 126.61 56.9609 125.83C56.0596 125.033 55.6089 123.741 55.6089 121.956V116.184H53.8409V112.492H55.6089V108.956H60.0549V112.492H62.9669V116.184H60.0549V122.008C60.0549 122.441 60.1589 122.753 60.3669 122.944C60.5749 123.135 60.9216 123.23 61.4069 123.23H62.9929ZM72.0734 127.208C70.6521 127.208 69.3694 126.905 68.2254 126.298C67.0988 125.691 66.2061 124.825 65.5474 123.698C64.9061 122.571 64.5854 121.254 64.5854 119.746C64.5854 118.255 64.9148 116.947 65.5734 115.82C66.2321 114.676 67.1334 113.801 68.2774 113.194C69.4214 112.587 70.7041 112.284 72.1254 112.284C73.5468 112.284 74.8294 112.587 75.9734 113.194C77.1174 113.801 78.0188 114.676 78.6774 115.82C79.3361 116.947 79.6654 118.255 79.6654 119.746C79.6654 121.237 79.3274 122.554 78.6514 123.698C77.9928 124.825 77.0828 125.691 75.9214 126.298C74.7774 126.905 73.4948 127.208 72.0734 127.208ZM72.0734 123.36C72.9228 123.36 73.6421 123.048 74.2314 122.424C74.8381 121.8 75.1414 120.907 75.1414 119.746C75.1414 118.585 74.8468 117.692 74.2574 117.068C73.6854 116.444 72.9748 116.132 72.1254 116.132C71.2588 116.132 70.5394 116.444 69.9674 117.068C69.3954 117.675 69.1094 118.567 69.1094 119.746C69.1094 120.907 69.3868 121.8 69.9414 122.424C70.5134 123.048 71.2241 123.36 72.0734 123.36ZM88.6281 127.208C87.2068 127.208 85.9241 126.905 84.7801 126.298C83.6534 125.691 82.7608 124.825 82.1021 123.698C81.4608 122.571 81.1401 121.254 81.1401 119.746C81.1401 118.255 81.4694 116.947 82.1281 115.82C82.7868 114.676 83.6881 113.801 84.8321 113.194C85.9761 112.587 87.2588 112.284 88.6801 112.284C90.1014 112.284 91.3841 112.587 92.5281 113.194C93.6721 113.801 94.5734 114.676 95.2321 115.82C95.8908 116.947 96.2201 118.255 96.2201 119.746C96.2201 121.237 95.8821 122.554 95.2061 123.698C94.5474 124.825 93.6374 125.691 92.4761 126.298C91.3321 126.905 90.0494 127.208 88.6281 127.208ZM88.6281 123.36C89.4774 123.36 90.1968 123.048 90.7861 122.424C91.3928 121.8 91.6961 120.907 91.6961 119.746C91.6961 118.585 91.4014 117.692 90.8121 117.068C90.2401 116.444 89.5294 116.132 88.6801 116.132C87.8134 116.132 87.0941 116.444 86.5221 117.068C85.9501 117.675 85.6641 118.567 85.6641 119.746C85.6641 120.907 85.9414 121.8 86.4961 122.424C87.0681 123.048 87.7788 123.36 88.6281 123.36ZM103.025 114.91C103.545 114.113 104.195 113.489 104.975 113.038C105.755 112.57 106.621 112.336 107.575 112.336V117.042H106.353C105.243 117.042 104.411 117.285 103.857 117.77C103.302 118.238 103.025 119.07 103.025 120.266V127H98.5788V112.492H103.025V114.91Z" fill="#0E562D"/>
</svg>
