<svg width="46" height="45" viewBox="0 0 46 45" fill="none" xmlns="http://www.w3.org/2000/svg">
<path d="M8.375 3.375C6.88316 3.375 5.45242 3.96763 4.39752 5.02252C3.34263 6.07742 2.75 7.50816 2.75 9V37.125C2.75 38.6168 3.34263 40.0476 4.39752 41.1025C5.45242 42.1574 6.88316 42.75 8.375 42.75H36.5C37.9918 42.75 39.4226 42.1574 40.4775 41.1025C41.5324 40.0476 42.125 38.6168 42.125 37.125V9C42.125 7.50816 41.5324 6.07742 40.4775 5.02252C39.4226 3.96763 37.9918 3.375 36.5 3.375H8.375ZM15.4062 15.3281C15.4062 15.8876 15.184 16.4241 14.7884 16.8197C14.3928 17.2153 13.8563 17.4375 13.2969 17.4375C12.7374 17.4375 12.2009 17.2153 11.8053 16.8197C11.4097 16.4241 11.1875 15.8876 11.1875 15.3281C11.1875 14.7687 11.4097 14.2322 11.8053 13.8366C12.2009 13.441 12.7374 13.2188 13.2969 13.2188C13.8563 13.2188 14.3928 13.441 14.7884 13.8366C15.184 14.2322 15.4062 14.7687 15.4062 15.3281ZM13.2969 25.875C12.7374 25.875 12.2009 25.6528 11.8053 25.2572C11.4097 24.8616 11.1875 24.3251 11.1875 23.7656C11.1875 23.2062 11.4097 22.6697 11.8053 22.2741C12.2009 21.8785 12.7374 21.6562 13.2969 21.6562C13.8563 21.6562 14.3928 21.8785 14.7884 22.2741C15.184 22.6697 15.4062 23.2062 15.4062 23.7656C15.4062 24.3251 15.184 24.8616 14.7884 25.2572C14.3928 25.6528 13.8563 25.875 13.2969 25.875ZM15.4062 32.2031C15.4062 32.7626 15.184 33.2991 14.7884 33.6947C14.3928 34.0903 13.8563 34.3125 13.2969 34.3125C12.7374 34.3125 12.2009 34.0903 11.8053 33.6947C11.4097 33.2991 11.1875 32.7626 11.1875 32.2031C11.1875 31.6437 11.4097 31.1072 11.8053 30.7116C12.2009 30.316 12.7374 30.0938 13.2969 30.0938C13.8563 30.0938 14.3928 30.316 14.7884 30.7116C15.184 31.1072 15.4062 31.6437 15.4062 32.2031ZM21.0312 14.625H32.2812C32.6542 14.625 33.0119 14.7732 33.2756 15.0369C33.5393 15.3006 33.6875 15.6583 33.6875 16.0312C33.6875 16.4042 33.5393 16.7619 33.2756 17.0256C33.0119 17.2893 32.6542 17.4375 32.2812 17.4375H21.0312C20.6583 17.4375 20.3006 17.2893 20.0369 17.0256C19.7732 16.7619 19.625 16.4042 19.625 16.0312C19.625 15.6583 19.7732 15.3006 20.0369 15.0369C20.3006 14.7732 20.6583 14.625 21.0312 14.625ZM19.625 24.4688C19.625 24.0958 19.7732 23.7381 20.0369 23.4744C20.3006 23.2107 20.6583 23.0625 21.0312 23.0625H32.2812C32.6542 23.0625 33.0119 23.2107 33.2756 23.4744C33.5393 23.7381 33.6875 24.0958 33.6875 24.4688C33.6875 24.8417 33.5393 25.1994 33.2756 25.4631C33.0119 25.7268 32.6542 25.875 32.2812 25.875H21.0312C20.6583 25.875 20.3006 25.7268 20.0369 25.4631C19.7732 25.1994 19.625 24.8417 19.625 24.4688ZM21.0312 31.5H32.2812C32.6542 31.5 33.0119 31.6482 33.2756 31.9119C33.5393 32.1756 33.6875 32.5333 33.6875 32.9062C33.6875 33.2792 33.5393 33.6369 33.2756 33.9006C33.0119 34.1643 32.6542 34.3125 32.2812 34.3125H21.0312C20.6583 34.3125 20.3006 34.1643 20.0369 33.9006C19.7732 33.6369 19.625 33.2792 19.625 32.9062C19.625 32.5333 19.7732 32.1756 20.0369 31.9119C20.3006 31.6482 20.6583 31.5 21.0312 31.5Z" fill="#F4F4F4"/>
</svg>
