<svg width="45" height="45" viewBox="0 0 45 45" fill="none" xmlns="http://www.w3.org/2000/svg">
<mask id="mask0_225_1147" style="mask-type:alpha" maskUnits="userSpaceOnUse" x="3" y="3" width="39" height="39">
<path d="M39.375 22.5V8.4375C39.375 7.69158 39.0787 6.97621 38.5512 6.44876C38.0238 5.92132 37.3084 5.625 36.5625 5.625H8.4375C7.69158 5.625 6.97621 5.92132 6.44876 6.44876C5.92132 6.97621 5.625 7.69158 5.625 8.4375V36.5625C5.625 37.3084 5.92132 38.0238 6.44876 38.5512C6.97621 39.0787 7.69158 39.375 8.4375 39.375H22.5" stroke="white" stroke-width="4" stroke-linecap="round" stroke-linejoin="round"/>
<path d="M30 35.625C33.1066 35.625 35.625 33.1066 35.625 30C35.625 26.8934 33.1066 24.375 30 24.375C26.8934 24.375 24.375 26.8934 24.375 30C24.375 33.1066 26.8934 35.625 30 35.625Z" fill="white" stroke="white" stroke-width="4"/>
<path d="M13.125 22.5H20.625M34.6875 33.75L39.375 37.5L34.6875 33.75ZM13.125 15H31.875H13.125Z" stroke="white" stroke-width="4" stroke-linecap="round" stroke-linejoin="round"/>
</mask>
<g mask="url(#mask0_225_1147)">
<path d="M0 0H45V45H0V0Z" fill="#F4F4F4"/>
</g>
</svg>
